<svg width="158" height="158" viewBox="0 0 158 158" fill="none" xmlns="http://www.w3.org/2000/svg">
<g clip-path="url(#clip0_3_98)">
<path fill-rule="evenodd" clip-rule="evenodd" d="M48.5416 86.6673C49.1044 87.129 49.6817 87.5738 50.2725 88.0009L46.8489 89.247L48.4279 93.5852C48.6015 94.0621 48.3555 94.5895 47.8786 94.7631C47.4017 94.9367 46.8743 94.6907 46.7008 94.2138L45.1218 89.8756L40.8074 91.4459C40.3286 91.6202 39.7992 91.3733 39.6249 90.8945C39.4506 90.4157 39.6975 89.8863 40.1763 89.712L44.4907 88.1417L42.9117 83.8035C42.7381 83.3266 42.984 82.7992 43.461 82.6256C43.9379 82.452 44.4652 82.6979 44.6388 83.1749L46.2178 87.5131L48.5416 86.6673ZM56.1176 91.4315C56.4022 91.5639 56.689 91.6926 56.9776 91.8177C57.0225 91.8819 57.0598 91.953 57.0879 92.0301L57.0904 92.037C57.264 92.5139 57.0181 93.0412 56.5412 93.2148C56.0642 93.3884 55.5369 93.1425 55.3633 92.6656L55.3608 92.6588C55.1872 92.1818 55.4331 91.6545 55.9101 91.4809C55.9786 91.456 56.0482 91.4397 56.1176 91.4315ZM43.6712 81.8208C43.5698 81.9461 43.4341 82.0463 43.2716 82.1054C42.7947 82.279 42.2673 82.0331 42.0938 81.5562L42.0913 81.5494C41.928 81.1008 42.1358 80.6077 42.5579 80.4062C42.9173 80.8872 43.2885 81.3589 43.6712 81.8208H43.6712ZM59.4873 98.6224L63.8017 97.0522C64.2805 96.8779 64.8099 97.1248 64.9842 97.6036C65.1585 98.0824 64.9116 98.6118 64.4328 98.7861L60.1184 100.356L61.6974 104.695C61.871 105.172 61.6251 105.699 61.1481 105.872C60.6712 106.046 60.1439 105.8 59.9703 105.323L58.3913 100.985L54.077 102.555C53.5981 102.73 53.0687 102.483 52.8944 102.004C52.7202 101.525 52.967 100.996 53.4459 100.821L57.7602 99.2511L56.1812 94.9129C56.0076 94.4359 56.2536 93.9086 56.7305 93.735C57.2074 93.5614 57.7348 93.8073 57.9083 94.2842L59.4873 98.6224ZM67.2282 96.783L67.2307 96.7898C67.4043 97.2667 67.1583 97.794 66.6814 97.9676C66.2045 98.1412 65.6771 97.8953 65.5036 97.4184L65.5011 97.4116C65.3275 96.9346 65.5734 96.4073 66.0503 96.2337C66.5272 96.0601 67.0546 96.306 67.2282 96.783ZM70.337 95.6514L70.3395 95.6583C70.513 96.1352 70.2671 96.6625 69.7902 96.8361C69.3133 97.0097 68.7859 96.7638 68.6123 96.2869L68.6099 96.2801C68.4363 95.8031 68.6822 95.2758 69.1591 95.1022C69.636 94.9286 70.1634 95.1745 70.337 95.6514ZM51.3388 102.566L51.3413 102.573C51.5149 103.05 51.269 103.577 50.792 103.751C50.3151 103.924 49.7878 103.679 49.6142 103.202L49.6117 103.195C49.4381 102.718 49.684 102.191 50.1609 102.017C50.6379 101.843 51.1652 102.089 51.3388 102.566ZM48.5754 103.572L48.5779 103.579C48.7515 104.056 48.5056 104.583 48.0287 104.757C47.5517 104.93 47.0244 104.684 46.8508 104.207L46.8483 104.201C46.6747 103.724 46.9207 103.196 47.3976 103.023C47.8745 102.849 48.4019 103.095 48.5754 103.572ZM62.5784 107.115L62.5809 107.122C62.7545 107.599 62.5086 108.126 62.0317 108.3C61.5548 108.474 61.0274 108.228 60.8538 107.751L60.8513 107.744C60.6778 107.267 60.9237 106.74 61.4006 106.566C61.8775 106.392 62.4049 106.638 62.5784 107.115ZM38.0693 91.4568L38.0718 91.4637C38.2453 91.9406 37.9994 92.4679 37.5225 92.6415C37.0456 92.8151 36.5182 92.5692 36.3447 92.0923L36.3422 92.0855C36.1686 91.6085 36.4145 91.0812 36.8914 90.9076C37.3683 90.734 37.8957 90.9799 38.0693 91.4568ZM35.3059 92.4626L35.3084 92.4694C35.482 92.9464 35.2361 93.4737 34.7591 93.6473C34.2822 93.8209 33.7549 93.575 33.5813 93.0981L33.5788 93.0912C33.4052 92.6143 33.6511 92.087 34.128 91.9134C34.605 91.7398 35.1323 91.9857 35.3059 92.4626ZM49.3089 96.0059L49.3114 96.0127C49.485 96.4896 49.2391 97.017 48.7622 97.1905C48.2852 97.3641 47.7579 97.1182 47.5843 96.6413L47.5818 96.6345C47.4082 96.1576 47.6541 95.6302 48.1311 95.4566C48.608 95.283 49.1353 95.5289 49.3089 96.0059Z" fill="#FFA229"/>
<path fill-rule="evenodd" clip-rule="evenodd" d="M117.222 133.479C117.222 133.045 117.333 132.641 117.555 132.265C117.776 131.89 118.072 131.59 118.443 131.364C118.814 131.138 119.216 131.025 119.65 131.025C120.075 131.025 120.473 131.138 120.843 131.364C121.214 131.59 121.51 131.89 121.732 132.265C121.953 132.641 122.064 133.045 122.064 133.479C122.064 133.922 121.953 134.331 121.732 134.706C121.51 135.082 121.212 135.378 120.836 135.595C120.461 135.812 120.066 135.92 119.65 135.92C119.225 135.92 118.825 135.812 118.45 135.595C118.075 135.378 117.776 135.082 117.555 134.706C117.333 134.331 117.222 133.922 117.222 133.479ZM124.423 133.357V122.644C124.423 122.002 124.625 121.466 125.027 121.037C125.429 120.607 125.947 120.393 126.58 120.393C127.222 120.393 127.744 120.607 128.146 121.037C128.548 121.466 128.749 122.002 128.749 122.644V133.357C128.749 133.999 128.548 134.539 128.146 134.978C127.744 135.416 127.222 135.635 126.58 135.635C125.947 135.635 125.429 135.416 125.027 134.978C124.625 134.539 124.423 133.999 124.423 133.357ZM124.003 116.473C124.003 115.768 124.256 115.158 124.762 114.643C125.269 114.127 125.874 113.87 126.58 113.87C127.294 113.87 127.904 114.123 128.41 114.629C128.917 115.135 129.17 115.75 129.17 116.473C129.17 117.224 128.917 117.848 128.41 118.345C127.904 118.842 127.294 119.091 126.58 119.091C125.874 119.091 125.269 118.838 124.762 118.331C124.256 117.825 124.003 117.206 124.003 116.473ZM137.388 120.108C138.473 120.108 139.465 120.309 140.365 120.711C141.264 121.114 142.037 121.676 142.684 122.4C143.33 123.123 143.827 123.957 144.175 124.902C144.523 125.846 144.697 126.879 144.697 128C144.697 129.456 144.392 130.792 143.782 132.008C143.172 133.224 142.311 134.18 141.199 134.876C140.087 135.572 138.816 135.92 137.388 135.92C136.312 135.92 135.329 135.721 134.438 135.323C133.548 134.926 132.773 134.358 132.113 133.622C131.453 132.885 130.951 132.035 130.607 131.072C130.264 130.109 130.092 129.085 130.092 128C130.092 126.563 130.399 125.236 131.014 124.02C131.629 122.804 132.49 121.848 133.598 121.152C134.705 120.456 135.969 120.108 137.388 120.108ZM137.388 124.312C136.466 124.312 135.74 124.664 135.211 125.37C134.683 126.075 134.418 126.952 134.418 128C134.418 128.669 134.536 129.291 134.771 129.865C135.006 130.439 135.347 130.893 135.795 131.228C136.242 131.562 136.773 131.73 137.388 131.73C138.319 131.73 139.047 131.375 139.571 130.665C140.096 129.955 140.358 129.067 140.358 128C140.358 126.943 140.096 126.063 139.571 125.363C139.047 124.662 138.319 124.312 137.388 124.312Z" fill="#FFA229"/>
<path fill-rule="evenodd" clip-rule="evenodd" d="M103.658 57.6853C95.1623 59.8307 88.875 67.5239 88.875 76.6855C88.875 79.6873 89.5499 82.5314 90.7564 85.0744C85.2995 89.2032 78.5012 91.6523 71.1309 91.6523C53.1503 91.6523 38.5742 77.0762 38.5742 59.0957C38.5742 41.1152 53.1503 26.5391 71.1309 26.5391C88.6389 26.5391 102.919 40.3591 103.658 57.6853ZM81.7957 72.5074C99.3271 64.5675 96.1267 45.2649 94.2798 43.8228C92.433 42.3806 81.661 43.9835 74.5095 46.5864C67.2277 49.2368 52.8873 56.3535 52.3193 58.8842C51.7514 61.4149 64.2644 80.4474 81.7957 72.5074ZM56.3003 39.6197C51.1892 42.3814 51.07 49.9863 52.768 48.7846C54.4661 47.5829 60.9302 43.762 65.1277 42.521C69.3251 41.28 61.4115 36.858 56.3003 39.6197ZM83.242 32.4482C78.6416 32.7419 75.172 39.0461 78.5187 38.1142C81.8653 37.1824 87.8212 37.0316 89.469 37.1251C91.1168 37.2187 87.8424 32.1545 83.242 32.4482Z" fill="#FFA229"/>
<path fill-rule="evenodd" clip-rule="evenodd" d="M108.471 93.1953C99.3526 93.1953 91.9609 85.8036 91.9609 76.6855C91.9609 67.5675 99.3526 60.1758 108.471 60.1758C117.589 60.1758 124.98 67.5675 124.98 76.6855C124.98 85.8036 117.589 93.1953 108.471 93.1953ZM103.062 83.4867C111.953 87.5132 118.298 77.8616 118.01 76.5783C117.722 75.2949 110.45 71.686 106.757 70.342C103.131 69.022 97.6682 68.2092 96.7316 68.9405C95.7951 69.6718 94.1722 79.4603 103.062 83.4867ZM115.991 66.8091C113.399 65.4086 109.386 67.6511 111.515 68.2804C113.644 68.9097 116.922 70.8473 117.783 71.4567C118.644 72.0661 118.583 68.2096 115.991 66.8091ZM102.329 63.1724C99.9961 63.0234 98.3357 65.5915 99.1713 65.5441C100.007 65.4966 103.027 65.5731 104.724 66.0457C106.421 66.5182 104.662 63.3213 102.329 63.1724Z" fill="#FFA229"/>
<path fill-rule="evenodd" clip-rule="evenodd" d="M27.908 122.644V133.357C27.908 134.008 27.7046 134.551 27.2978 134.984C26.8909 135.418 26.3711 135.635 25.7382 135.635C25.241 135.635 24.8228 135.5 24.4838 135.229C24.1448 134.957 23.8894 134.632 23.7176 134.252C23.2294 134.849 22.6892 135.276 22.097 135.534C21.5048 135.791 20.8019 135.92 19.9882 135.92C18.7496 135.92 17.6218 135.57 16.6047 134.869C15.5876 134.169 14.783 133.21 14.1908 131.994C13.5986 130.778 13.3026 129.447 13.3026 128C13.3026 126.572 13.5986 125.25 14.1908 124.034C14.783 122.818 15.5899 121.859 16.6115 121.159C17.6331 120.458 18.7587 120.108 19.9882 120.108C20.811 120.108 21.5139 120.234 22.097 120.487C22.6802 120.741 23.2203 121.17 23.7176 121.776C23.8803 121.405 24.1335 121.082 24.477 120.806C24.8206 120.53 25.241 120.393 25.7382 120.393C26.3711 120.393 26.8909 120.607 27.2978 121.037C27.7046 121.466 27.908 122.002 27.908 122.644ZM29.7523 139.419V122.644C29.7523 122.002 29.9535 121.466 30.3558 121.037C30.7581 120.607 31.2757 120.393 31.9086 120.393C32.4058 120.393 32.8285 120.528 33.1766 120.799C33.5246 121.071 33.78 121.396 33.9428 121.776C34.44 121.17 34.9779 120.741 35.5566 120.487C36.1352 120.234 36.8358 120.108 37.6586 120.108C38.8881 120.108 40.0159 120.458 41.0421 121.159C42.0682 121.859 42.8774 122.818 43.4695 124.034C44.0617 125.25 44.3578 126.572 44.3578 128C44.3578 129.112 44.1928 130.139 43.8628 131.079C43.5328 132.019 43.0559 132.86 42.4321 133.601C41.8083 134.343 41.0941 134.914 40.2894 135.317C39.4848 135.719 38.6078 135.92 37.6586 135.92C36.8358 135.92 36.16 135.816 35.6311 135.608C35.1023 135.4 34.5847 135.097 34.0784 134.7V139.419C34.0784 140.07 33.875 140.612 33.4681 141.046C33.0613 141.48 32.5414 141.697 31.9086 141.697C31.2848 141.697 30.7694 141.48 30.3626 141.046C29.9558 140.612 29.7523 140.07 29.7523 139.419ZM45.7004 139.419V122.644C45.7004 122.002 45.9015 121.466 46.3038 121.037C46.7062 120.607 47.2238 120.393 47.8566 120.393C48.3539 120.393 48.7765 120.528 49.1246 120.799C49.4727 121.071 49.7281 121.396 49.8908 121.776C50.3881 121.17 50.926 120.741 51.5046 120.487C52.0832 120.234 52.7839 120.108 53.6066 120.108C54.8361 120.108 55.964 120.458 56.9901 121.159C58.0163 121.859 58.8254 122.818 59.4176 124.034C60.0098 125.25 60.3058 126.572 60.3058 128C60.3058 129.112 60.1408 130.139 59.8109 131.079C59.4809 132.019 59.004 132.86 58.3801 133.601C57.7563 134.343 57.0421 134.914 56.2375 135.317C55.4328 135.719 54.5559 135.92 53.6066 135.92C52.7839 135.92 52.1081 135.816 51.5792 135.608C51.0503 135.4 50.5327 135.097 50.0264 134.7V139.419C50.0264 140.07 49.823 140.612 49.4162 141.046C49.0093 141.48 48.4895 141.697 47.8566 141.697C47.2328 141.697 46.7175 141.48 46.3106 141.046C45.9038 140.612 45.7004 140.07 45.7004 139.419ZM73.6365 129.451H65.8117C65.8117 130.039 66.0829 130.593 66.6254 131.113C67.1678 131.633 68.0538 131.892 69.2834 131.892C69.9162 131.892 70.4406 131.811 70.8565 131.648C71.2724 131.486 71.7854 131.253 72.3957 130.95C73.006 130.647 73.4467 130.496 73.7179 130.496C74.2242 130.496 74.6536 130.672 75.0062 131.025C75.3588 131.377 75.5351 131.834 75.5351 132.394C75.5351 133.063 75.2029 133.671 74.5384 134.218C73.8739 134.765 73.0173 135.186 71.9685 135.479C70.9198 135.773 69.8394 135.92 68.7274 135.92C67.5792 135.92 66.5418 135.721 65.6151 135.323C64.6884 134.926 63.8883 134.363 63.2147 133.635C62.5412 132.907 62.0281 132.057 61.6755 131.086C61.3229 130.114 61.1466 129.085 61.1466 128C61.1466 126.979 61.332 125.984 61.7026 125.017C62.0733 124.05 62.5977 123.2 63.2758 122.467C63.9538 121.735 64.763 121.159 65.7032 120.738C66.6435 120.318 67.6515 120.108 68.7274 120.108C70.1106 120.108 71.3357 120.456 72.4025 121.152C73.4693 121.848 74.2943 122.761 74.8774 123.891C75.4605 125.021 75.7521 126.233 75.7521 127.526C75.7521 128.267 75.5848 128.773 75.2503 129.045C74.9158 129.316 74.3779 129.451 73.6365 129.451ZM77.0947 133.357V116.148C77.0947 115.497 77.2981 114.955 77.7049 114.521C78.1118 114.087 78.6271 113.87 79.2509 113.87C79.8838 113.87 80.4036 114.087 80.8104 114.521C81.2173 114.955 81.4207 115.497 81.4207 116.148V133.357C81.4207 133.999 81.2195 134.539 80.8172 134.978C80.4149 135.416 79.8928 135.635 79.2509 135.635C78.618 135.635 78.1005 135.416 77.6981 134.978C77.2958 134.539 77.0947 133.999 77.0947 133.357ZM82.587 132.896C82.587 132.281 82.761 131.775 83.1091 131.377C83.4572 130.979 83.8798 130.78 84.3771 130.78C84.6754 130.78 84.9602 130.832 85.2314 130.936C85.5026 131.04 85.8665 131.203 86.3231 131.425C86.7797 131.646 87.1571 131.807 87.4555 131.906C87.7538 132.006 88.1154 132.055 88.5404 132.055C88.9562 132.055 89.2636 131.972 89.4625 131.804C89.6614 131.637 89.7609 131.427 89.7609 131.174C89.7609 130.948 89.6976 130.762 89.571 130.618C89.4444 130.473 89.2772 130.353 89.0692 130.258C88.8613 130.163 88.5675 130.044 88.1878 129.899C87.8081 129.754 87.2114 129.519 86.3977 129.194C85.5478 128.832 84.8924 128.491 84.4313 128.17C83.9702 127.849 83.6131 127.438 83.36 126.936C83.1068 126.434 82.9802 125.808 82.9802 125.058C82.9802 124.208 83.2085 123.403 83.6651 122.644C84.1217 121.884 84.7771 121.272 85.6315 120.806C86.4858 120.341 87.4645 120.108 88.5675 120.108C89.0376 120.108 89.562 120.164 90.1406 120.277C90.7192 120.39 91.2684 120.576 91.7883 120.833C92.3081 121.091 92.733 121.419 93.063 121.816C93.393 122.214 93.558 122.684 93.558 123.227C93.558 123.579 93.4789 123.898 93.3207 124.183C93.1625 124.468 92.9455 124.685 92.6698 124.834C92.394 124.983 92.0889 125.058 91.7544 125.058C91.5736 125.058 91.3769 125.017 91.1645 124.936C90.952 124.854 90.6537 124.723 90.2694 124.542C89.8852 124.361 89.5349 124.221 89.2184 124.122C88.902 124.022 88.5901 123.973 88.2827 123.973C87.9663 123.973 87.6973 124.05 87.4758 124.203C87.2543 124.357 87.1436 124.588 87.1436 124.895C87.1436 125.247 87.4961 125.571 88.2013 125.865C88.9065 126.158 89.727 126.495 90.6627 126.875C91.5984 127.255 92.3759 127.765 92.9952 128.407C93.6145 129.049 93.9242 129.913 93.9242 130.997C93.9242 131.992 93.6756 132.862 93.1783 133.608C92.6811 134.354 92.0053 134.926 91.1509 135.323C90.2965 135.721 89.3676 135.92 88.3641 135.92C86.8904 135.92 85.5592 135.642 84.3703 135.086C83.1814 134.53 82.587 133.8 82.587 132.896ZM95.0904 133.357V122.644C95.0904 122.002 95.2916 121.466 95.6939 121.037C96.0962 120.607 96.6138 120.393 97.2467 120.393C97.8886 120.393 98.4107 120.607 98.813 121.037C99.2153 121.466 99.4165 122.002 99.4165 122.644V133.357C99.4165 133.999 99.2153 134.539 98.813 134.978C98.4107 135.416 97.8886 135.635 97.2467 135.635C96.6138 135.635 96.0962 135.416 95.6939 134.978C95.2916 134.539 95.0904 133.999 95.0904 133.357ZM94.67 116.473C94.67 115.768 94.9232 115.158 95.4295 114.643C95.9358 114.127 96.5415 113.87 97.2467 113.87C97.9609 113.87 98.5712 114.123 99.0775 114.629C99.5837 115.135 99.8369 115.75 99.8369 116.473C99.8369 117.224 99.5837 117.848 99.0775 118.345C98.5712 118.842 97.9609 119.091 97.2467 119.091C96.5415 119.091 95.9358 118.838 95.4295 118.331C94.9232 117.825 94.67 117.206 94.67 116.473ZM101.342 133.357V122.644C101.342 122.002 101.543 121.466 101.946 121.037C102.348 120.607 102.866 120.393 103.498 120.393C104.023 120.393 104.477 120.53 104.861 120.806C105.246 121.082 105.515 121.405 105.668 121.776C106.373 120.664 107.617 120.108 109.398 120.108C110.419 120.108 111.339 120.293 112.157 120.664C112.975 121.034 113.617 121.602 114.083 122.366C114.549 123.13 114.781 124.09 114.781 125.247V133.357C114.781 134.008 114.578 134.551 114.171 134.984C113.764 135.418 113.244 135.635 112.612 135.635C111.979 135.635 111.459 135.414 111.052 134.971C110.645 134.528 110.442 133.99 110.442 133.357V126.441C110.442 125.654 110.232 125.019 109.811 124.536C109.391 124.052 108.805 123.81 108.055 123.81C107.314 123.81 106.731 124.054 106.306 124.542C105.881 125.031 105.668 125.663 105.668 126.441V133.357C105.668 133.999 105.467 134.539 105.065 134.978C104.662 135.416 104.14 135.635 103.498 135.635C102.866 135.635 102.348 135.416 101.946 134.978C101.543 134.539 101.342 133.999 101.342 133.357ZM20.5985 124.312C19.6763 124.312 18.9508 124.664 18.4219 125.37C17.893 126.075 17.6286 126.952 17.6286 128C17.6286 128.669 17.7461 129.291 17.9812 129.865C18.2162 130.439 18.5575 130.893 19.0051 131.228C19.4526 131.563 19.9837 131.73 20.5985 131.73C21.5297 131.73 22.2575 131.375 22.7819 130.665C23.3062 129.955 23.5684 129.067 23.5684 128C23.5684 126.943 23.3062 126.063 22.7819 125.363C22.2575 124.662 21.5297 124.312 20.5985 124.312ZM37.0483 131.73C37.9795 131.73 38.7073 131.375 39.2317 130.665C39.756 129.955 40.0182 129.067 40.0182 128C40.0182 126.943 39.756 126.063 39.2317 125.363C38.7073 124.662 37.9795 124.312 37.0483 124.312C36.1261 124.312 35.4006 124.664 34.8717 125.37C34.3428 126.075 34.0784 126.952 34.0784 128C34.0784 128.669 34.1959 129.291 34.431 129.865C34.666 130.439 35.0073 130.893 35.4549 131.228C35.9024 131.563 36.4335 131.73 37.0483 131.73ZM52.9963 131.73C53.9275 131.73 54.6553 131.375 55.1797 130.665C55.7041 129.955 55.9662 129.067 55.9662 128C55.9662 126.943 55.7041 126.063 55.1797 125.363C54.6553 124.662 53.9275 124.312 52.9963 124.312C52.0742 124.312 51.3486 124.664 50.8197 125.37C50.2909 126.075 50.0264 126.952 50.0264 128C50.0264 128.669 50.1439 129.291 50.379 129.865C50.6141 130.439 50.9554 130.893 51.4029 131.228C51.8504 131.563 52.3815 131.73 52.9963 131.73ZM65.8117 126.441H71.4125C71.4125 126.097 71.2905 125.715 71.0463 125.295C70.8022 124.875 70.47 124.522 70.0496 124.237C69.6292 123.952 69.1523 123.81 68.6189 123.81C68.0855 123.81 67.6041 123.955 67.1746 124.244C66.7452 124.533 66.4107 124.884 66.1711 125.295C65.9315 125.706 65.8117 126.088 65.8117 126.441Z" fill="white"/>
<path fill-rule="evenodd" clip-rule="evenodd" d="M106.429 54.118C106.343 53.5072 106.242 52.9013 106.127 52.3008C106.572 52.1987 107.034 52.4422 107.194 52.8826L107.197 52.8894C107.37 53.3664 107.124 53.8937 106.648 54.0673C106.575 54.0936 106.502 54.1103 106.429 54.118ZM115.343 48.9389L119.657 47.3686C120.136 47.1943 120.665 47.4412 120.84 47.92C121.014 48.3988 120.767 48.9282 120.288 49.1025L115.974 50.6728L117.553 55.011C117.726 55.4879 117.481 56.0153 117.004 56.1888C116.527 56.3624 115.999 56.1165 115.826 55.6396L114.247 51.3014L109.932 52.8717C109.454 53.046 108.924 52.7991 108.75 52.3203C108.576 51.8415 108.823 51.312 109.301 51.1378L113.616 49.5675L112.037 45.2293C111.863 44.7523 112.109 44.225 112.586 44.0514C113.063 43.8778 113.59 44.1237 113.764 44.6006L115.343 48.9389ZM114.726 35.3607L119.04 33.7904C119.519 33.6162 120.048 33.863 120.222 34.3418C120.397 34.8207 120.15 35.3501 119.671 35.5244L115.357 37.0947L116.936 41.4329C117.109 41.9098 116.863 42.4371 116.386 42.6107C115.909 42.7843 115.382 42.5384 115.209 42.0615L113.63 37.7233L109.315 39.2936C108.836 39.4678 108.307 39.221 108.133 38.7422C107.958 38.2633 108.205 37.7339 108.684 37.5596L112.998 35.9893L111.42 31.6511C111.246 31.1742 111.492 30.6469 111.969 30.4733C112.446 30.2997 112.973 30.5456 113.147 31.0225L114.726 35.3607ZM122.466 33.5212L122.469 33.5281C122.643 34.005 122.397 34.5323 121.92 34.7059C121.443 34.8795 120.915 34.6336 120.742 34.1567L120.739 34.1499C120.566 33.6729 120.812 33.1456 121.289 32.972C121.766 32.7984 122.293 33.0443 122.466 33.5212ZM125.575 32.3897L125.578 32.3965C125.751 32.8735 125.505 33.4008 125.028 33.5744C124.552 33.748 124.024 33.5021 123.851 33.0252L123.848 33.0183C123.675 32.5414 123.92 32.0141 124.397 31.8405C124.874 31.6669 125.402 31.9128 125.575 32.3897ZM106.577 39.3045L106.58 39.3113C106.753 39.7882 106.507 40.3156 106.03 40.4892C105.553 40.6628 105.026 40.4169 104.852 39.9399L104.85 39.9331C104.676 39.4562 104.922 38.9288 105.399 38.7553C105.876 38.5817 106.404 38.8276 106.577 39.3045ZM103.814 40.3103L103.816 40.3171C103.99 40.794 103.744 41.3214 103.267 41.495C102.79 41.6685 102.263 41.4226 102.089 40.9457L102.087 40.9389C101.913 40.462 102.159 39.9346 102.636 39.761C103.113 39.5875 103.64 39.8334 103.814 40.3103ZM112.326 28.7684L112.329 28.7752C112.502 29.2522 112.256 29.7795 111.779 29.9531C111.302 30.1267 110.775 29.8808 110.602 29.4039L110.599 29.397C110.426 28.9201 110.671 28.3928 111.148 28.2192C111.625 28.0456 112.153 28.2915 112.326 28.7684ZM117.817 43.8535L117.819 43.8603C117.993 44.3373 117.747 44.8646 117.27 45.0382C116.793 45.2118 116.266 44.9659 116.092 44.489L116.09 44.4822C115.916 44.0052 116.162 43.4779 116.639 43.3043C117.116 43.1307 117.643 43.3766 117.817 43.8535ZM123.084 47.0994L123.086 47.1062C123.26 47.5831 123.014 48.1105 122.537 48.284C122.06 48.4576 121.533 48.2117 121.359 47.7348L121.357 47.728C121.183 47.2511 121.429 46.7237 121.906 46.5501C122.383 46.3765 122.91 46.6224 123.084 47.0994ZM126.192 45.9679L126.195 45.9747C126.368 46.4516 126.123 46.9789 125.646 47.1525C125.169 47.3261 124.641 47.0802 124.468 46.6033L124.465 46.5965C124.292 46.1195 124.538 45.5922 125.015 45.4186C125.491 45.245 126.019 45.4909 126.192 45.9679ZM112.943 42.3466L112.946 42.3534C113.119 42.8303 112.874 43.3576 112.397 43.5312C111.92 43.7048 111.392 43.4589 111.219 42.982L111.216 42.9752C111.043 42.4982 111.289 41.9709 111.766 41.7973C112.242 41.6237 112.77 41.8696 112.943 42.3466ZM118.434 57.4317L118.436 57.4385C118.61 57.9154 118.364 58.4427 117.887 58.6163C117.41 58.7899 116.883 58.544 116.709 58.0671L116.707 58.0603C116.533 57.5833 116.779 57.056 117.256 56.8824C117.733 56.7088 118.26 56.9547 118.434 57.4317Z" fill="white"/>
<path fill-rule="evenodd" clip-rule="evenodd" d="M65.6153 54.3692C69.4171 52.2523 72.9963 50.5876 76.3529 49.3751C79.7839 48.1358 83.5287 47.1716 87.5873 46.4826L87.5873 46.4826C88.989 46.2446 90.3183 47.188 90.5562 48.5897C90.5598 48.6105 90.563 48.6313 90.566 48.6521C89.9189 52.6931 87.241 54.2711 82.9038 55.9543C79.3145 57.3472 75.0997 58.6315 70.2594 59.807C68.3553 60.2694 66.3497 59.671 65.0102 58.241C64.0716 57.2388 64.123 55.6655 65.1252 54.7268C65.2733 54.5881 65.4379 54.468 65.6153 54.3692L65.6153 54.3692Z" fill="white"/>
<path fill-rule="evenodd" clip-rule="evenodd" d="M111.283 74.1807V74.1808C111.373 74.2313 111.458 74.2928 111.534 74.3638C112.046 74.8436 112.072 75.6476 111.592 76.1595C110.907 76.8905 109.882 77.1963 108.908 76.96C106.433 76.3592 104.277 75.7028 102.442 74.9908C100.224 74.1305 98.8545 73.324 98.5236 71.2585C98.5251 71.248 98.5267 71.2374 98.5285 71.2269C98.6501 70.5103 99.3296 70.028 100.046 70.1496C102.122 70.5017 104.037 70.9946 105.792 71.6281C107.508 72.2478 109.338 73.0987 111.283 74.1807Z" fill="white"/>
</g>
<defs>
<clipPath id="clip0_3_98">
<rect width="158" height="158" fill="white"/>
</clipPath>
</defs>
</svg>
